# xmcd
#
# Track frame offsets:
#	150
#	14288
#	31766
#	48525
#	60901
#	79355
#	96700
#	110838
#	128314
#	145075
#	157453
#	175906
#
# Disc length: 2576 seconds
#
# Revision: 2
# Processed by: cddbd v1.5.2PL0 Copyright (c) Steve Scherf et al.
# Submitted via: audiograbber 1.83.01
#
DISCID=a20a0e0c
DTITLE=Leann Rimes - CB20011 Hot Hit Vol. 11
DYEAR=1997
DGENRE=Karaoke
TTITLE0=LeAnn Rimes - BLUE  (Vocals)
TTITLE1=LeAnn Rimes - ONE WAY TICKET (BECAUSE I CAN)  (vocals)
TTITLE2=LeAnn Rimes - THE LIGHTIN YOUR EYES  (Vocals)
TTITLE3=LeAnn Rimes - COWBOY'S SWEETHEART  (Vocals)
TTITLE4=LeAnn Rimes - UNCHAINED MELODY  (Vocal)
TTITLE5=LeAnn Rimes - YOU LIGHT UP MY LIFE (Vocals)
TTITLE6=LeAnn Rimes - BLUE 
TTITLE7=LeAnn Rimes - ONE WAY TICKET (BECAUSE I CAN) 
TTITLE8=LeAnn Rimes - THE LIGHTIN YOUR EYES 
TTITLE9=LeAnn Rimes - COWBOY'S SWEETHEART 
TTITLE10=LeAnn Rimes - UNCHAINED MELODY 
TTITLE11=LeAnn Rimes - YOU LIGHT UP MY LIFE
EXTD=
EXTT0=
EXTT1=
EXTT2=
EXTT3=
EXTT4=
EXTT5=
EXTT6=
EXTT7=
EXTT8=
EXTT9=
EXTT10=
EXTT11=
PLAYORDER=
